<?xml version="1.0" standalone="no"?>
<!DOCTYPE svg PUBLIC "-//W3C//DTD SVG 20010904//EN"
 "http://www.w3.org/TR/2001/REC-SVG-20010904/DTD/svg10.dtd">
<svg version="1.0" xmlns="http://www.w3.org/2000/svg"
 width="512.000000pt" height="512.000000pt" viewBox="0 0 512.000000 512.000000"
 preserveAspectRatio="xMidYMid meet">

<g transform="translate(0.000000,512.000000) scale(0.100000,-0.100000)"
fill="#18A885" stroke="none">
<path d="M3555 3910 c-124 -14 -234 -55 -303 -115 -47 -41 -82 -100 -82 -139
0 -22 -21 -33 -251 -131 -138 -58 -266 -116 -284 -128 -114 -75 -67 -207 74
-207 60 0 220 85 373 196 25 19 49 31 51 27 15 -26 112 -342 141 -461 163
-664 108 -1146 -160 -1391 -96 -88 -228 -150 -389 -182 -105 -21 -537 -18
-628 4 -270 67 -341 265 -242 674 19 80 22 108 14 137 -22 78 -92 87 -276 33
-197 -58 -317 -72 -628 -71 -193 0 -311 5 -414 18 -126 15 -302 46 -352 62
-13 3 -25 -15 -53 -83 -75 -179 -126 -427 -126 -618 0 -86 4 -107 25 -150 13
-27 32 -59 42 -70 34 -39 134 -115 183 -140 28 -14 50 -29 50 -33 0 -4 -13
-39 -29 -77 -41 -97 -54 -186 -49 -319 4 -82 12 -132 31 -189 99 -305 389
-516 710 -517 117 0 218 24 336 81 87 43 116 63 186 132 142 142 213 295 223
484 3 66 9 103 16 103 6 0 67 -5 136 -10 204 -17 702 -14 880 5 179 18 387 54
512 89 47 13 89 22 92 18 3 -3 6 -31 6 -63 0 -72 17 -152 41 -201 26 -50 67
-71 136 -66 l55 3 17 -55 c35 -111 91 -200 186 -295 103 -103 168 -145 293
-188 80 -28 98 -30 227 -31 120 -1 151 2 215 22 253 80 432 259 512 512 19 64
23 96 23 210 -1 163 -15 217 -103 393 -2 5 12 5 31 2 20 -4 50 -4 67 0 32 7
32 7 27 56 -9 72 -51 144 -132 224 -143 142 -347 229 -601 257 l-101 11 -6 66
c-8 90 -24 124 -132 275 -162 228 -294 449 -429 716 -81 159 -202 448 -226
538 -6 24 -13 49 -16 56 -4 11 4 12 43 4 68 -13 220 -12 269 1 23 6 54 21 69
33 46 36 55 74 55 223 0 149 -9 187 -55 223 -49 39 -159 55 -280 42z m1043
-2780 c207 -163 226 -463 41 -649 -234 -233 -628 -132 -725 188 -17 56 -18
180 -2 233 7 23 24 48 40 60 l29 20 16 -22 c40 -56 142 -177 202 -239 72 -74
106 -88 170 -71 75 20 123 106 99 180 -6 19 -43 72 -82 118 -39 46 -84 99 -99
118 l-29 34 29 11 c47 18 206 58 235 59 16 0 45 -15 76 -40z m-3844 -136 c55
-14 118 -30 139 -35 l38 -10 -30 -35 c-48 -54 -64 -92 -58 -140 12 -107 117
-160 217 -109 14 7 66 61 115 119 88 104 91 106 125 101 19 -2 47 -5 62 -5 42
0 58 -24 58 -89 0 -263 -243 -475 -497 -433 -217 36 -373 217 -373 432 0 97
56 248 87 236 8 -4 61 -18 117 -32z"/>
<path d="M196 2749 c-76 -18 -129 -77 -142 -157 -6 -36 -3 -47 16 -67 79 -84
425 -135 914 -135 498 0 856 52 940 135 32 33 14 117 -38 173 -54 60 -9 57
-866 59 -452 1 -801 -3 -824 -8z"/>
</g>
</svg>
